<svg xmlns="http://www.w3.org/2000/svg" width="72" height="58" viewBox="0 0 72 58" shape-rendering="crispEdges" role="img" aria-label="Instagram"><rect width="72" height="58" rx="10" fill="#f7f4ea" stroke="#e6e0cf" stroke-width="1"/><rect x="22" y="10" width="2" height="2" fill="#E1306C"/><rect x="24" y="10" width="2" height="2" fill="#E1306C"/><rect x="26" y="10" width="2" height="2" fill="#E1306C"/><rect x="28" y="10" width="2" height="2" fill="#E1306C"/><rect x="30" y="10" width="2" height="2" fill="#E1306C"/><rect x="32" y="10" width="2" height="2" fill="#C13584"/><rect x="34" y="10" width="2" height="2" fill="#C13584"/><rect x="36" y="10" width="2" height="2" fill="#C13584"/><rect x="38" y="10" width="2" height="2" fill="#C13584"/><rect x="40" y="10" width="2" height="2" fill="#C13584"/><rect x="42" y="10" width="2" height="2" fill="#833AB4"/><rect x="44" y="10" width="2" height="2" fill="#833AB4"/><rect x="46" y="10" width="2" height="2" fill="#833AB4"/><rect x="48" y="10" width="2" height="2" fill="#833AB4"/><rect x="22" y="12" width="2" height="2" fill="#F35E4B"/><rect x="24" y="12" width="2" height="2" fill="#E1306C"/><rect x="26" y="12" width="2" height="2" fill="#E1306C"/><rect x="28" y="12" width="2" height="2" fill="#E1306C"/><rect x="30" y="12" width="2" height="2" fill="#E1306C"/><rect x="32" y="12" width="2" height="2" fill="#E1306C"/><rect x="34" y="12" width="2" height="2" fill="#C13584"/><rect x="36" y="12" width="2" height="2" fill="#C13584"/><rect x="38" y="12" width="2" height="2" fill="#C13584"/><rect x="40" y="12" width="2" height="2" fill="#C13584"/><rect x="42" y="12" width="2" height="2" fill="#C13584"/><rect x="44" y="12" width="2" height="2" fill="#833AB4"/><rect x="46" y="12" width="2" height="2" fill="#833AB4"/><rect x="48" y="12" width="2" height="2" fill="#833AB4"/><rect x="22" y="14" width="2" height="2" fill="#F35E4B"/><rect x="24" y="14" width="2" height="2" fill="#F35E4B"/><rect x="26" y="14" width="2" height="2" fill="#E1306C"/><rect x="28" y="14" width="2" height="2" fill="#E1306C"/><rect x="30" y="14" width="2" height="2" fill="#E1306C"/><rect x="32" y="14" width="2" height="2" fill="#E1306C"/><rect x="34" y="14" width="2" height="2" fill="#E1306C"/><rect x="36" y="14" width="2" height="2" fill="#C13584"/><rect x="38" y="14" width="2" height="2" fill="#C13584"/><rect x="40" y="14" width="2" height="2" fill="#C13584"/><rect x="42" y="14" width="2" height="2" fill="#C13584"/><rect x="44" y="14" width="2" height="2" fill="#C13584"/><rect x="46" y="14" width="2" height="2" fill="#833AB4"/><rect x="48" y="14" width="2" height="2" fill="#833AB4"/><rect x="22" y="16" width="2" height="2" fill="#F35E4B"/><rect x="24" y="16" width="2" height="2" fill="#F35E4B"/><rect x="26" y="16" width="2" height="2" fill="#F35E4B"/><rect x="28" y="16" width="2" height="2" fill="#FFFFFF"/><rect x="30" y="16" width="2" height="2" fill="#FFFFFF"/><rect x="32" y="16" width="2" height="2" fill="#FFFFFF"/><rect x="34" y="16" width="2" height="2" fill="#FFFFFF"/><rect x="36" y="16" width="2" height="2" fill="#FFFFFF"/><rect x="38" y="16" width="2" height="2" fill="#FFFFFF"/><rect x="40" y="16" width="2" height="2" fill="#FFFFFF"/><rect x="42" y="16" width="2" height="2" fill="#FFFFFF"/><rect x="44" y="16" width="2" height="2" fill="#C13584"/><rect x="46" y="16" width="2" height="2" fill="#C13584"/><rect x="48" y="16" width="2" height="2" fill="#833AB4"/><rect x="22" y="18" width="2" height="2" fill="#F35E4B"/><rect x="24" y="18" width="2" height="2" fill="#F35E4B"/><rect x="26" y="18" width="2" height="2" fill="#F35E4B"/><rect x="28" y="18" width="2" height="2" fill="#FFFFFF"/><rect x="30" y="18" width="2" height="2" fill="#E1306C"/><rect x="32" y="18" width="2" height="2" fill="#E1306C"/><rect x="34" y="18" width="2" height="2" fill="#E1306C"/><rect x="36" y="18" width="2" height="2" fill="#E1306C"/><rect x="38" y="18" width="2" height="2" fill="#FFFFFF"/><rect x="40" y="18" width="2" height="2" fill="#C13584"/><rect x="42" y="18" width="2" height="2" fill="#FFFFFF"/><rect x="44" y="18" width="2" height="2" fill="#C13584"/><rect x="46" y="18" width="2" height="2" fill="#C13584"/><rect x="48" y="18" width="2" height="2" fill="#C13584"/><rect x="22" y="20" width="2" height="2" fill="#F35E4B"/><rect x="24" y="20" width="2" height="2" fill="#F35E4B"/><rect x="26" y="20" width="2" height="2" fill="#F35E4B"/><rect x="28" y="20" width="2" height="2" fill="#FFFFFF"/><rect x="30" y="20" width="2" height="2" fill="#F35E4B"/><rect x="32" y="20" width="2" height="2" fill="#E1306C"/><rect x="34" y="20" width="2" height="2" fill="#FFFFFF"/><rect x="36" y="20" width="2" height="2" fill="#FFFFFF"/><rect x="38" y="20" width="2" height="2" fill="#E1306C"/><rect x="40" y="20" width="2" height="2" fill="#E1306C"/><rect x="42" y="20" width="2" height="2" fill="#FFFFFF"/><rect x="44" y="20" width="2" height="2" fill="#C13584"/><rect x="46" y="20" width="2" height="2" fill="#C13584"/><rect x="48" y="20" width="2" height="2" fill="#C13584"/><rect x="22" y="22" width="2" height="2" fill="#F77737"/><rect x="24" y="22" width="2" height="2" fill="#F35E4B"/><rect x="26" y="22" width="2" height="2" fill="#F35E4B"/><rect x="28" y="22" width="2" height="2" fill="#FFFFFF"/><rect x="30" y="22" width="2" height="2" fill="#F35E4B"/><rect x="32" y="22" width="2" height="2" fill="#FFFFFF"/><rect x="34" y="22" width="2" height="2" fill="#E1306C"/><rect x="36" y="22" width="2" height="2" fill="#E1306C"/><rect x="38" y="22" width="2" height="2" fill="#FFFFFF"/><rect x="40" y="22" width="2" height="2" fill="#E1306C"/><rect x="42" y="22" width="2" height="2" fill="#FFFFFF"/><rect x="44" y="22" width="2" height="2" fill="#C13584"/><rect x="46" y="22" width="2" height="2" fill="#C13584"/><rect x="48" y="22" width="2" height="2" fill="#C13584"/><rect x="22" y="24" width="2" height="2" fill="#F77737"/><rect x="24" y="24" width="2" height="2" fill="#F77737"/><rect x="26" y="24" width="2" height="2" fill="#F35E4B"/><rect x="28" y="24" width="2" height="2" fill="#FFFFFF"/><rect x="30" y="24" width="2" height="2" fill="#F35E4B"/><rect x="32" y="24" width="2" height="2" fill="#FFFFFF"/><rect x="34" y="24" width="2" height="2" fill="#F35E4B"/><rect x="36" y="24" width="2" height="2" fill="#E1306C"/><rect x="38" y="24" width="2" height="2" fill="#FFFFFF"/><rect x="40" y="24" width="2" height="2" fill="#E1306C"/><rect x="42" y="24" width="2" height="2" fill="#FFFFFF"/><rect x="44" y="24" width="2" height="2" fill="#E1306C"/><rect x="46" y="24" width="2" height="2" fill="#C13584"/><rect x="48" y="24" width="2" height="2" fill="#C13584"/><rect x="22" y="26" width="2" height="2" fill="#F77737"/><rect x="24" y="26" width="2" height="2" fill="#F77737"/><rect x="26" y="26" width="2" height="2" fill="#F77737"/><rect x="28" y="26" width="2" height="2" fill="#FFFFFF"/><rect x="30" y="26" width="2" height="2" fill="#F35E4B"/><rect x="32" y="26" width="2" height="2" fill="#F35E4B"/><rect x="34" y="26" width="2" height="2" fill="#FFFFFF"/><rect x="36" y="26" width="2" height="2" fill="#FFFFFF"/><rect x="38" y="26" width="2" height="2" fill="#E1306C"/><rect x="40" y="26" width="2" height="2" fill="#E1306C"/><rect x="42" y="26" width="2" height="2" fill="#FFFFFF"/><rect x="44" y="26" width="2" height="2" fill="#E1306C"/><rect x="46" y="26" width="2" height="2" fill="#E1306C"/><rect x="48" y="26" width="2" height="2" fill="#C13584"/><rect x="22" y="28" width="2" height="2" fill="#F77737"/><rect x="24" y="28" width="2" height="2" fill="#F77737"/><rect x="26" y="28" width="2" height="2" fill="#F77737"/><rect x="28" y="28" width="2" height="2" fill="#FFFFFF"/><rect x="30" y="28" width="2" height="2" fill="#F35E4B"/><rect x="32" y="28" width="2" height="2" fill="#F35E4B"/><rect x="34" y="28" width="2" height="2" fill="#F35E4B"/><rect x="36" y="28" width="2" height="2" fill="#F35E4B"/><rect x="38" y="28" width="2" height="2" fill="#F35E4B"/><rect x="40" y="28" width="2" height="2" fill="#E1306C"/><rect x="42" y="28" width="2" height="2" fill="#FFFFFF"/><rect x="44" y="28" width="2" height="2" fill="#E1306C"/><rect x="46" y="28" width="2" height="2" fill="#E1306C"/><rect x="48" y="28" width="2" height="2" fill="#E1306C"/><rect x="22" y="30" width="2" height="2" fill="#F77737"/><rect x="24" y="30" width="2" height="2" fill="#F77737"/><rect x="26" y="30" width="2" height="2" fill="#F77737"/><rect x="28" y="30" width="2" height="2" fill="#FFFFFF"/><rect x="30" y="30" width="2" height="2" fill="#FFFFFF"/><rect x="32" y="30" width="2" height="2" fill="#FFFFFF"/><rect x="34" y="30" width="2" height="2" fill="#FFFFFF"/><rect x="36" y="30" width="2" height="2" fill="#FFFFFF"/><rect x="38" y="30" width="2" height="2" fill="#FFFFFF"/><rect x="40" y="30" width="2" height="2" fill="#FFFFFF"/><rect x="42" y="30" width="2" height="2" fill="#FFFFFF"/><rect x="44" y="30" width="2" height="2" fill="#E1306C"/><rect x="46" y="30" width="2" height="2" fill="#E1306C"/><rect x="48" y="30" width="2" height="2" fill="#E1306C"/><rect x="22" y="32" width="2" height="2" fill="#F9A03F"/><rect x="24" y="32" width="2" height="2" fill="#F77737"/><rect x="26" y="32" width="2" height="2" fill="#F77737"/><rect x="28" y="32" width="2" height="2" fill="#F77737"/><rect x="30" y="32" width="2" height="2" fill="#F77737"/><rect x="32" y="32" width="2" height="2" fill="#F77737"/><rect x="34" y="32" width="2" height="2" fill="#F35E4B"/><rect x="36" y="32" width="2" height="2" fill="#F35E4B"/><rect x="38" y="32" width="2" height="2" fill="#F35E4B"/><rect x="40" y="32" width="2" height="2" fill="#F35E4B"/><rect x="42" y="32" width="2" height="2" fill="#F35E4B"/><rect x="44" y="32" width="2" height="2" fill="#E1306C"/><rect x="46" y="32" width="2" height="2" fill="#E1306C"/><rect x="48" y="32" width="2" height="2" fill="#E1306C"/><rect x="22" y="34" width="2" height="2" fill="#F9A03F"/><rect x="24" y="34" width="2" height="2" fill="#F9A03F"/><rect x="26" y="34" width="2" height="2" fill="#F77737"/><rect x="28" y="34" width="2" height="2" fill="#F77737"/><rect x="30" y="34" width="2" height="2" fill="#F77737"/><rect x="32" y="34" width="2" height="2" fill="#F77737"/><rect x="34" y="34" width="2" height="2" fill="#F77737"/><rect x="36" y="34" width="2" height="2" fill="#F35E4B"/><rect x="38" y="34" width="2" height="2" fill="#F35E4B"/><rect x="40" y="34" width="2" height="2" fill="#F35E4B"/><rect x="42" y="34" width="2" height="2" fill="#F35E4B"/><rect x="44" y="34" width="2" height="2" fill="#F35E4B"/><rect x="46" y="34" width="2" height="2" fill="#E1306C"/><rect x="48" y="34" width="2" height="2" fill="#E1306C"/><rect x="22" y="36" width="2" height="2" fill="#F9A03F"/><rect x="24" y="36" width="2" height="2" fill="#F9A03F"/><rect x="26" y="36" width="2" height="2" fill="#F9A03F"/><rect x="28" y="36" width="2" height="2" fill="#F77737"/><rect x="30" y="36" width="2" height="2" fill="#F77737"/><rect x="32" y="36" width="2" height="2" fill="#F77737"/><rect x="34" y="36" width="2" height="2" fill="#F77737"/><rect x="36" y="36" width="2" height="2" fill="#F77737"/><rect x="38" y="36" width="2" height="2" fill="#F35E4B"/><rect x="40" y="36" width="2" height="2" fill="#F35E4B"/><rect x="42" y="36" width="2" height="2" fill="#F35E4B"/><rect x="44" y="36" width="2" height="2" fill="#F35E4B"/><rect x="46" y="36" width="2" height="2" fill="#F35E4B"/><rect x="48" y="36" width="2" height="2" fill="#E1306C"/><text x="36" y="50" text-anchor="middle" font-family="monospace" font-size="10" fill="#7c7460">Instagram</text></svg>